<svg width="18" height="19" viewBox="0 0 18 19" fill="none" xmlns="http://www.w3.org/2000/svg">
<path d="M8.19754 0.662323H9.51139C9.70369 0.687953 9.89598 0.711506 10.0876 0.739561C11.6984 0.974044 13.1484 1.5871 14.4096 2.61786C16.1125 4.00987 17.1793 5.78598 17.5698 7.95661C17.6256 8.2659 17.6613 8.58005 17.7063 8.88969V10.1342C17.6952 10.1837 17.6814 10.2325 17.6734 10.2827C17.6041 10.7133 17.5618 11.1504 17.4624 11.5736C16.4458 15.9079 12.1994 19.0293 7.38921 18.2448C5.62736 17.9573 4.07825 17.2005 2.79351 15.9588C0.541392 13.7844 -0.34213 11.123 0.125617 8.03627C0.388941 6.29063 1.16505 4.77012 2.37392 3.48063C3.76954 1.99199 5.47768 1.07795 7.50216 0.763806C7.73361 0.727785 7.96575 0.696959 8.19754 0.662323ZM14.1778 15.2045C16.4462 13.1346 17.4 9.65202 16.0401 6.45584C15.3599 4.85532 14.1644 3.52782 12.6433 2.68413C11.1221 1.84044 9.36267 1.52893 7.64422 1.79907C4.33984 2.30994 1.47377 4.99802 1.08294 8.72621C0.9097 10.3825 1.25271 11.9418 2.07941 13.3892C2.46536 14.0716 2.95751 14.6882 3.5374 15.2159C4.06994 13.5243 5.13501 12.3411 6.73159 11.6259C4.74453 10.2557 4.51412 7.68402 5.81377 6.03571C7.13247 4.36419 9.51139 4.04831 11.1811 5.32914C12.0345 5.9841 12.558 6.84965 12.6775 7.91747C12.8508 9.47607 12.2427 10.7049 10.9832 11.6297C12.6931 12.47 13.331 13.1849 14.1778 15.2045ZM8.84789 17.3311C9.02598 17.3193 9.20407 17.3078 9.38216 17.2965C10.7497 17.2106 12.0005 16.7769 13.147 16.0333C13.2326 15.9779 13.2634 15.9214 13.2426 15.8231C12.7333 13.427 10.4628 11.8777 8.06415 12.3346C6.15228 12.6993 4.96212 13.8866 4.4774 15.7756C4.44275 15.9104 4.47913 15.9803 4.59381 16.0527C5.8893 16.8902 7.30917 17.3044 8.84789 17.3311ZM8.85274 5.59653C8.29767 5.59653 7.75506 5.76107 7.29354 6.06934C6.83201 6.37761 6.4723 6.81577 6.25988 7.3284C6.04747 7.84104 5.99189 8.40513 6.10018 8.94935C6.20847 9.49356 6.47576 9.99345 6.86825 10.3858C7.26075 10.7782 7.76081 11.0454 8.30522 11.1536C8.84962 11.2619 9.41391 11.2063 9.92673 10.994C10.4395 10.7816 10.8779 10.422 11.1862 9.96067C11.4946 9.49931 11.6592 8.95689 11.6592 8.40202C11.6607 8.03317 11.5892 7.66768 11.4487 7.32662C11.3082 6.98556 11.1015 6.67568 10.8406 6.41487C10.5797 6.15405 10.2697 5.94746 9.92852 5.807C9.58734 5.66655 9.22171 5.59502 8.85274 5.59653Z" fill="#121711"/>
</svg>
